/* XPM */
static char * ghemical_xpm[] = {
"48 48 65 1",
" 	c None",
".	c #900909",
"+	c #969796",
"@	c #6C1616",
"#	c #743434",
"$	c #B8B9B9",
"%	c #FE2B2B",
"&	c #5A5E5F",
"*	c #CECECE",
"=	c #BD0606",
"-	c #DADADA",
";	c #6B7070",
">	c #D50909",
",	c #A7120E",
"'	c #E5E5E5",
")	c #BA2626",
"!	c #768181",
"~	c #E00A0A",
"{	c #862A28",
"]	c #ECECEC",
"^	c #FE7472",
"/	c #FE9E9E",
"(	c #AE1616",
"_	c #EB0C0D",
":	c #A5A5A5",
"<	c #F2F2F2",
"[	c #7F3131",
"}	c #8D8E8D",
"|	c #FEC0C0",
"1	c #BA2222",
"2	c #FE5051",
"3	c #F20E0E",
"4	c #8B8989",
"5	c #696767",
"6	c #7D6E6F",
"7	c #50403E",
"8	c #E51A1A",
"9	c #861919",
"0	c #9D0808",
"a	c #F6F6F6",
"b	c #808080",
"c	c #AABEBE",
"d	c #805454",
"e	c #984546",
"f	c #C54D4B",
"g	c #6B5252",
"h	c #868A8A",
"i	c #868686",
"j	c #727272",
"k	c #4E4646",
"l	c #CC0808",
"m	c #C2A8A8",
"n	c #FD0D0D",
"o	c #787878",
"p	c #9D1514",
"q	c #FB1514",
"r	c #AEAFAF",
"s	c #7E6666",
"t	c #AA0606",
"u	c #FE4040",
"v	c #FDFDFD",
"w	c #C2C3C3",
"x	c #AE8282",
"y	c #7A5F5F",
"z	c #525253",
"                                                ",
"                                                ",
"                                                ",
"                                                ",
"                                                ",
"                                                ",
"              =l>l=0                            ",
"            ,>~33_~lt                           ",
"           0>3nnnnn_l9  0t0                     ",
"           =_nnnnn8d;5&(>>>lt                   ",
"           l3nn%2f;joo;en333>=                  ",
"          ,>3nq^mjbbbbo6nnnn3>t                 ",
"          ,>3nnf;bbiiib!8qqnn_lp                ",
"          .=~n8;!bi}+}i!f^unn3>,                ",
"          6p~nyobi}*]w}bx|^qn3>,                ",
"      $w*-w!#{&5ob+vv'+bo^uqn3>,    :w***w      ",
"     w-av:&&&&&5;;jb$w}bo8nnn~l.   $-----'*     ",
"     *vab&;jj;;obbboj;jb!8nn3>t   }ozzzzzzbr    ",
"     'ao5oooooobbiibboj5;)>=t0@  zkz&555joo5    ",
"    -]i5obbbbbobi}+}bbj&zk=>{kz&&&&5;jo+$***w   ",
"    -r&obbi}}ibi+*]$}o;;5517zzgg;j;;oo:*-]]]'*  ",
"     55obi+w*:ib:vv'boooook@0tttt{joo4w'<vvvv]* ",
"     z5ob}$vv*}b+-a4obbbig.=l>>>>=ty!:-]vvvvvv'w",
"     z5;;j4-vw4bh+bobi4}s.=>~_33_~>ts$-avvvvvv<w",
"    z5joooo;;bibboob4:wr9=>~3nnnn3~>,c'avvvvvv<w",
"  r*zjobbbbboo5;jobi+'vm0l~3nnnnnn3~=x-<vvvvvv]w",
" r-]&obi4}}iboj&z&;o}'vet>3nnq%%qnn3le-'vvvvva- ",
" *avooi4:--:io555jooj5+{=>3nqu/^%nn3>pc-'<vv<-w ",
"$'vv4bi}*vvwojoj;obbbb!9=~3nq2|/%nn3~,hr*---*r  ",
"w]vv:oi}$v<iobboobbi}4h[=>3nn%2uqnn3>p!o}:r+ow  ",
"w]vvwjii}:bobiibbb4:wr}yt>~nnnqqnnn_l#;55&z5*   ",
" -vv]5bbiobb4::}bb+'v<:i9=~3nnnnnn3~t&zzz&:-w   ",
" *'vvooboob4:]aw4b+'v<:hy0l~_3nn33~=#  i:ww     ",
"  w-]+5;jbb4$vv-}b}r*$}b!d0=>~~~~>=9            ",
"    w:z&jbbi:']$4bi4}}io}v*e0====t              ",
"       z5obi}+:}ibbbibo+vvva$e.                 ",
"       }:+iobiibboobbo+vvvv]w                   ",
"       w'vv]$}jooo;j;}vvvvv-r                   ",
"       *-vvvvv':55&&;]vvvv]w                    ",
"        *vvvvvvv-ok +w-''-w                     ",
"        w]vvvvv]w:    $$$$                      ",
"         *'ava'*r                               ",
"          w***$r                                ",
"                                                ",
"                                                ",
"                                                ",
"                                                ",
"                                                "};
